<svg width="159" height="24" viewBox="0 0 159 24" fill="none" xmlns="http://www.w3.org/2000/svg">
<path d="M22.6894 2.11757C23.3773 0.690949 25.0808 -0.146313 26.414 0.462294C27.7471 1.07089 29.0774 1.91457 30.3974 2.66054C31.4814 3.27884 32.5555 3.91689 33.6396 4.53847C34.1006 4.77382 34.484 5.13801 34.7421 5.58632C35.0002 6.03464 35.1228 6.54842 35.0946 7.06483C35.0717 8.6059 35.0878 10.1504 35.0878 11.6947V16.3246C35.1084 16.791 34.9964 17.2542 34.7646 17.6596C34.5327 18.0649 34.19 18.3965 33.7773 18.6156C31.0421 20.1993 28.3164 21.7996 25.5878 23.3734C25.2001 23.6124 24.7534 23.7386 24.2978 23.7387C23.8419 23.7387 23.3946 23.6126 23.0068 23.3734C20.3121 21.8226 17.6263 20.2541 14.9491 18.6683C14.2433 18.257 13.7293 17.5818 13.5214 16.7924C13.3135 16.003 13.428 15.1634 13.8398 14.4584C14.2516 13.7533 14.9274 13.2403 15.7177 13.0326C16.5078 12.825 17.3479 12.9398 18.0536 13.351C20.9657 15.0099 23.9145 16.623 26.8036 18.3441C27.891 18.9983 28.9358 18.223 28.9032 17.1205C28.8312 14.8693 28.8602 12.6142 28.87 10.3598C28.8959 9.9679 28.8092 9.57707 28.62 9.2328C28.4309 8.88848 28.1475 8.60508 27.8027 8.4164C26.4138 7.59185 25.0366 6.74476 23.6718 5.8744C23.0731 5.47957 22.6413 4.8773 22.4599 4.18397C22.2785 3.49061 22.3606 2.75454 22.6894 2.11757ZM10.8046 0.272841C11.2848 0.272908 11.7547 0.412503 12.1571 0.674208C14.8169 2.23822 17.4834 3.78886 20.1366 5.36268C20.4857 5.56611 20.7915 5.83627 21.0361 6.15761C21.2805 6.47892 21.4596 6.84544 21.5624 7.23573C21.6652 7.62617 21.6893 8.03395 21.6347 8.43397C21.58 8.83381 21.4477 9.21921 21.2441 9.56776C21.0404 9.91644 20.7699 10.2219 20.4482 10.4662C20.1265 10.7104 19.7597 10.8889 19.3691 10.9916C18.9782 11.0943 18.5703 11.1194 18.1698 11.0648C17.7695 11.0103 17.3841 10.8766 17.0351 10.6732C14.1328 9.03718 11.2434 7.38145 8.33781 5.76503C7.07675 5.04524 6.22462 5.55269 6.22453 6.9955C6.22453 9.2238 6.25728 11.4527 6.22453 13.681C6.19727 14.0841 6.28917 14.4866 6.4882 14.8383C6.68725 15.1899 6.98486 15.476 7.34464 15.6605C8.69746 16.4524 10.0245 17.2963 11.3544 18.1176C12.5042 18.8374 12.9565 20.1365 12.5634 21.5141C12.2162 22.7312 10.9747 23.7392 9.73332 23.6674C9.06429 23.6375 8.40898 23.4665 7.81046 23.1664C5.72711 22.0212 3.70229 20.7776 1.63859 19.6127C0.521838 18.9845 -0.0252514 18.1045 0.000894444 16.809C0.0434786 15.3431 0.000894444 13.8634 0.000894444 12.4008H0.017496C0.0174995 10.8827 0.0338728 9.36418 0.017496 7.84608C-0.0205043 7.33183 0.0941964 6.81781 0.347574 6.36854C0.601071 5.91916 0.982087 5.55465 1.4423 5.32069C4.125 3.79268 6.78804 2.22513 9.45109 0.674208C9.85364 0.41244 10.3243 0.272841 10.8046 0.272841Z" fill="#1EAF6E"/>
<path d="M49.4404 3.03544C51.5521 3.03549 53.3572 3.563 54.8428 4.63114C56.3283 5.69928 57.3228 7.0008 57.8262 8.53544L55.1865 9.19852C54.8059 8.15491 54.106 7.29527 53.0869 6.6077C52.0678 5.92013 50.864 5.57645 49.4766 5.57645C47.5861 5.57654 46.0516 6.20279 44.873 7.46708C43.6943 8.73173 43.1045 10.2792 43.1045 12.1087C43.1045 13.9504 43.6944 15.5099 44.873 16.7991C46.0516 18.088 47.5861 18.7268 49.4766 18.7268C50.864 18.7268 52.0678 18.3953 53.0869 17.72C54.106 17.0447 54.8055 16.1845 55.1738 15.1409L57.8135 15.8167C57.3101 17.3391 56.3278 18.628 54.8545 19.6839C53.3812 20.7397 51.6013 21.2678 49.502 21.2679L49.4766 21.305C46.8615 21.3049 44.6766 20.4327 42.9209 18.677C41.1652 16.9213 40.293 14.7486 40.293 12.1458C40.293 9.54283 41.1647 7.36919 42.9082 5.63798C44.6517 3.9068 46.8252 3.03544 49.4404 3.03544ZM138.695 7.9954C140.279 7.9954 141.605 8.40099 142.686 9.21122C143.766 10.0215 144.442 10.9422 144.712 11.9856L142.269 12.6858C142.084 12.0598 141.667 11.5195 141.017 11.053C140.366 10.5864 139.604 10.3528 138.732 10.3528C137.529 10.3528 136.547 10.7706 135.786 11.5931C135.025 12.4157 134.644 13.4226 134.644 14.6136C134.644 15.78 135.025 16.7869 135.786 17.6341C136.547 18.481 137.529 18.8986 138.72 18.8987C139.591 18.8987 140.353 18.6776 141.004 18.2356C141.654 17.7937 142.072 17.2659 142.256 16.6399L144.699 17.3147C144.429 18.3338 143.766 19.2427 142.698 20.053C141.63 20.8633 140.304 21.2679 138.72 21.2679V21.305C136.817 21.3049 135.233 20.6666 133.969 19.3899C132.704 18.113 132.078 16.5288 132.078 14.638C132.078 12.7472 132.704 11.1633 133.956 9.89872C135.208 8.63413 136.792 7.99546 138.695 7.9954ZM71.0752 7.98368C73.0765 7.98369 74.6476 8.58554 75.8018 9.80106C76.9559 11.0166 77.5332 12.5385 77.5332 14.3802C77.5332 14.6993 77.5086 15.0554 77.4473 15.4358H67.1709C67.2568 16.504 67.6618 17.3642 68.3984 18.0149C69.1351 18.6656 70.1301 18.9974 71.3701 18.9974C73.1134 18.9973 74.3171 18.3211 74.9678 16.9583L77.374 17.6712C76.9197 18.6656 76.1705 19.5124 75.127 20.2122C74.0833 20.9121 72.8061 21.2688 71.2959 21.2688L71.3203 21.2933C69.3192 21.2932 67.6986 20.6791 66.4463 19.4515C65.1939 18.2236 64.5674 16.6148 64.5674 14.638C64.5674 12.735 65.1698 11.1516 66.373 9.887C67.5763 8.62235 69.1475 7.98368 71.0752 7.98368ZM152.405 7.98368C154.407 7.98368 155.979 8.58553 157.133 9.80106C158.287 11.0165 158.864 12.5387 158.864 14.3802C158.864 14.6993 158.84 15.0554 158.778 15.4358H148.501C148.587 16.504 148.992 17.3642 149.729 18.0149C150.465 18.6657 151.46 18.9973 152.7 18.9974C154.444 18.9974 155.647 18.3212 156.298 16.9583L158.704 17.6712C158.25 18.6656 157.501 19.5124 156.457 20.2122C155.413 20.9119 154.137 21.2688 152.627 21.2688L152.651 21.2933C150.65 21.2933 149.029 20.6793 147.776 19.4515C146.524 18.2236 145.898 16.6147 145.898 14.638C145.898 12.7351 146.5 11.1516 147.703 9.887C148.906 8.62242 150.478 7.98375 152.405 7.98368ZM84.9697 7.95927C86.9465 7.95927 88.4695 8.70841 89.5254 10.2063V8.29032H92.1406V20.9368H89.5254V19.0218C88.4695 20.5197 86.9465 21.2688 84.9697 21.2688V21.2561C83.1772 21.2561 81.6788 20.6184 80.4756 19.3538C79.2724 18.0892 78.6709 16.5049 78.6709 14.6018C78.6709 12.7112 79.2726 11.1272 80.4756 9.86259C81.6788 8.59797 83.1772 7.9593 84.9697 7.95927ZM62.5596 20.9368H59.9199V2.58134H62.5596V20.9368ZM99.207 8.54813C99.9559 8.15527 100.84 8.02055 101.847 8.15556V10.6106C100.46 10.402 99.3915 10.6725 98.6426 11.4212C97.8936 12.1701 97.5254 13.4352 97.5254 15.2278V20.9368H94.8857V8.29032H97.5254V10.2923C97.9058 9.5187 98.4659 8.93694 99.207 8.54813ZM111.442 3.31767C113.247 3.31768 114.696 3.92008 115.776 5.12333C116.857 6.32654 117.397 7.70137 117.397 9.24833C117.397 10.7953 116.845 12.158 115.752 13.3489C114.659 14.5398 113.174 15.1291 111.308 15.1292H106.163V20.9368H103.437V3.33036H111.442V3.31767ZM123.112 8.54813C123.861 8.15523 124.746 8.0205 125.753 8.15556V10.6106C124.366 10.4019 123.297 10.6723 122.548 11.4212C121.799 12.1701 121.431 13.4352 121.431 15.2278V20.9368H118.791V8.29032H121.431V10.2923C121.811 9.51872 122.371 8.93696 123.112 8.54813ZM130.009 20.9368H127.394V8.29032H130.009V20.9368ZM85.375 10.3294C84.1718 10.3294 83.1895 10.7344 82.416 11.5325C81.6427 12.3305 81.2618 13.3493 81.2617 14.5891C81.2617 15.8292 81.6552 16.8608 82.4287 17.6712C83.2022 18.4814 84.1963 18.887 85.3994 18.887L85.3623 18.8987C86.5286 18.8987 87.5237 18.4941 88.334 17.6839C89.1443 16.8735 89.5498 15.8419 89.5498 14.6018C89.5498 13.374 89.1443 12.3546 88.334 11.5442C87.5237 10.734 86.5413 10.3294 85.375 10.3294ZM71.0879 10.2669C69.9951 10.2669 69.0979 10.599 68.3857 11.262C67.6739 11.9249 67.2691 12.7352 67.1709 13.6927H74.9424C74.8564 12.6859 74.476 11.8633 73.8008 11.2249C73.1256 10.5865 72.2172 10.267 71.0879 10.2669ZM152.418 10.2669C151.325 10.2669 150.429 10.599 149.717 11.262C149.005 11.925 148.599 12.735 148.501 13.6927H156.273C156.187 12.6859 155.806 11.8633 155.131 11.2249C154.456 10.5866 153.547 10.2669 152.418 10.2669ZM106.163 12.6497H111.258C112.314 12.6497 113.161 12.3055 113.8 11.6302C114.438 10.9549 114.758 10.1564 114.758 9.23563C114.758 8.31506 114.438 7.50508 113.8 6.81767C113.161 6.13017 112.363 5.78552 111.394 5.78544H106.163V12.6497ZM128.731 2.98661C129.198 2.98661 129.591 3.14594 129.91 3.46513C130.229 3.78436 130.39 4.16527 130.39 4.59501C130.39 5.0614 130.229 5.45416 129.91 5.76102C129.591 6.0679 129.198 6.22782 128.731 6.22782C128.265 6.22776 127.872 6.06792 127.553 5.76102C127.234 5.45418 127.074 5.06133 127.074 4.59501C127.074 4.16536 127.234 3.78432 127.553 3.46513C127.872 3.14595 128.265 2.98667 128.731 2.98661Z" fill="black"/>
</svg>
