<svg width="114" height="38" viewBox="0 0 114 38" fill="none" xmlns="http://www.w3.org/2000/svg">
<path d="M48.1453 19.4875C48.1453 24.762 43.9901 28.6488 38.8906 28.6488C33.7912 28.6488 29.6359 24.762 29.6359 19.4875C29.6359 14.1757 33.7912 10.3262 38.8906 10.3262C43.9901 10.3262 48.1453 14.1757 48.1453 19.4875ZM44.0941 19.4875C44.0941 16.1914 41.6858 13.9362 38.8906 13.9362C36.0955 13.9362 33.6872 16.1914 33.6872 19.4875C33.6872 22.7505 36.0955 25.0388 38.8906 25.0388C41.6858 25.0388 44.0941 22.7464 44.0941 19.4875Z" fill="#EA4335"/>
<path d="M68.1106 19.4875C68.1106 24.762 63.9553 28.6488 58.8559 28.6488C53.7564 28.6488 49.6011 24.762 49.6011 19.4875C49.6011 14.1799 53.7564 10.3262 58.8559 10.3262C63.9553 10.3262 68.1106 14.1757 68.1106 19.4875ZM64.0593 19.4875C64.0593 16.1914 61.651 13.9362 58.8559 13.9362C56.0607 13.9362 53.6524 16.1914 53.6524 19.4875C53.6524 22.7505 56.0607 25.0388 58.8559 25.0388C61.651 25.0388 64.0593 22.7464 64.0593 19.4875Z" fill="#FBBC05"/>
<path d="M87.2439 10.8797V27.327C87.2439 34.0927 83.2259 36.856 78.4759 36.856C74.0045 36.856 71.3133 33.8862 70.2984 31.4575L73.8256 29.9994C74.4537 31.4905 75.9927 33.2501 78.4717 33.2501C81.5122 33.2501 83.3965 31.3873 83.3965 27.8805V26.5629H83.255C82.3483 27.674 80.6013 28.6446 78.3968 28.6446C73.784 28.6446 69.558 24.6546 69.558 19.5205C69.558 14.3492 73.784 10.3262 78.3968 10.3262C80.5972 10.3262 82.3441 11.2968 83.255 12.3749H83.3965V10.8838H87.2439V10.8797ZM83.6835 19.5205C83.6835 16.2946 81.5164 13.9362 78.7587 13.9362C75.9636 13.9362 73.6218 16.2946 73.6218 19.5205C73.6218 22.7133 75.9636 25.0388 78.7587 25.0388C81.5164 25.0388 83.6835 22.7133 83.6835 19.5205Z" fill="#4285F4"/>
<path d="M93.5871 1.23901V28.0868H89.6356V1.23901H93.5871Z" fill="#34A853"/>
<path d="M108.985 22.5027L112.13 24.5844C111.115 26.0755 108.669 28.6446 104.443 28.6446C99.2023 28.6446 95.2883 24.6216 95.2883 19.4833C95.2883 14.0353 99.2356 10.322 103.99 10.322C108.777 10.322 111.119 14.1055 111.884 16.1501L112.304 17.1909L99.9718 22.2631C100.916 24.1012 102.384 25.0388 104.443 25.0388C106.506 25.0388 107.937 24.0309 108.985 22.5027ZM99.3063 19.2066L107.55 15.8072C107.097 14.6631 105.733 13.8659 104.127 13.8659C102.068 13.8659 99.2023 15.6709 99.3063 19.2066Z" fill="#EA4335"/>
<path d="M14.6786 17.1041V13.2174H27.8681C27.9971 13.8947 28.0636 14.696 28.0636 15.5634C28.0636 18.4795 27.2609 22.0854 24.6737 24.6545C22.1573 27.2567 18.942 28.6445 14.6828 28.6445C6.78818 28.6445 0.149734 22.2589 0.149734 14.4193C0.149734 6.57974 6.78818 0.194092 14.6828 0.194092C19.0502 0.194092 22.1614 1.89583 24.499 4.11387L21.7372 6.85648C20.0609 5.29518 17.7899 4.08083 14.6786 4.08083C8.91364 4.08083 4.40483 8.69453 4.40483 14.4193C4.40483 20.1441 8.91364 24.7578 14.6786 24.7578C18.4179 24.7578 20.5476 23.2667 21.9118 21.9119C23.0183 20.8132 23.7462 19.2437 24.0332 17.1L14.6786 17.1041Z" fill="#4285F4"/>
</svg>
