<svg width="114" height="38" viewBox="0 0 114 38" fill="none" xmlns="http://www.w3.org/2000/svg">
<g clip-path="url(#clip0_515_15013)">
<path d="M48.2817 19.4875C48.2817 24.762 44.1264 28.6488 39.027 28.6488C33.9275 28.6488 29.7722 24.762 29.7722 19.4875C29.7722 14.1757 33.9275 10.3262 39.027 10.3262C44.1264 10.3262 48.2817 14.1757 48.2817 19.4875ZM44.2304 19.4875C44.2304 16.1914 41.8221 13.9362 39.027 13.9362C36.2318 13.9362 33.8235 16.1914 33.8235 19.4875C33.8235 22.7505 36.2318 25.0388 39.027 25.0388C41.8221 25.0388 44.2304 22.7464 44.2304 19.4875Z" fill="black"/>
<path d="M68.2469 19.4875C68.2469 24.762 64.0917 28.6488 58.9922 28.6488C53.8928 28.6488 49.7375 24.762 49.7375 19.4875C49.7375 14.1799 53.8928 10.3262 58.9922 10.3262C64.0917 10.3262 68.2469 14.1757 68.2469 19.4875ZM64.1956 19.4875C64.1956 16.1914 61.7873 13.9362 58.9922 13.9362C56.1971 13.9362 53.7888 16.1914 53.7888 19.4875C53.7888 22.7505 56.1971 25.0388 58.9922 25.0388C61.7873 25.0388 64.1956 22.7464 64.1956 19.4875Z" fill="black"/>
<path d="M87.3803 10.8797V27.327C87.3803 34.0927 83.3623 36.856 78.6122 36.856C74.1408 36.856 71.4497 33.8862 70.4348 31.4575L73.962 29.9994C74.59 31.4905 76.129 33.2501 78.608 33.2501C81.6486 33.2501 83.5328 31.3873 83.5328 27.8805V26.5629H83.3914C82.4846 27.674 80.7377 28.6446 78.5332 28.6446C73.9204 28.6446 69.6944 24.6546 69.6944 19.5205C69.6944 14.3492 73.9204 10.3262 78.5332 10.3262C80.7335 10.3262 82.4805 11.2968 83.3914 12.3749H83.5328V10.8838H87.3803V10.8797ZM83.8198 19.5205C83.8198 16.2946 81.6527 13.9362 78.895 13.9362C76.0999 13.9362 73.7582 16.2946 73.7582 19.5205C73.7582 22.7133 76.0999 25.0388 78.895 25.0388C81.6527 25.0388 83.8198 22.7133 83.8198 19.5205Z" fill="black"/>
<path d="M93.7234 1.23901V28.0868H89.772V1.23901H93.7234Z" fill="black"/>
<path d="M109.122 22.5027L112.266 24.5844C111.251 26.0755 108.805 28.6446 104.58 28.6446C99.3386 28.6446 95.4246 24.6216 95.4246 19.4833C95.4246 14.0353 99.3719 10.322 104.126 10.322C108.914 10.322 111.255 14.1055 112.021 16.1501L112.441 17.1909L100.108 22.2631C101.052 24.1012 102.521 25.0388 104.58 25.0388C106.643 25.0388 108.073 24.0309 109.122 22.5027ZM99.4426 19.2066L107.687 15.8072C107.233 14.6631 105.869 13.8659 104.263 13.8659C102.204 13.8659 99.3386 15.6709 99.4426 19.2066Z" fill="black"/>
<path d="M14.815 17.1041V13.2174H28.0045C28.1335 13.8947 28.2 14.696 28.2 15.5634C28.2 18.4795 27.3972 22.0854 24.8101 24.6545C22.2936 27.2567 19.0784 28.6445 14.8191 28.6445C6.92454 28.6445 0.286102 22.2589 0.286102 14.4193C0.286102 6.57974 6.92454 0.194092 14.8191 0.194092C19.1865 0.194092 22.2978 1.89583 24.6354 4.11387L21.8735 6.85648C20.1973 5.29518 17.9262 4.08083 14.815 4.08083C9.05001 4.08083 4.54119 8.69453 4.54119 14.4193C4.54119 20.1441 9.05001 24.7578 14.815 24.7578C18.5543 24.7578 20.6839 23.2667 22.0482 21.9119C23.1546 20.8132 23.8825 19.2437 24.1695 17.1L14.815 17.1041Z" fill="black"/>
</g>
<defs>
<clipPath id="clip0_515_15013">
<rect width="113.136" height="38" fill="white" transform="translate(0.136353)"/>
</clipPath>
</defs>
</svg>
