<svg width="750" height="185" viewBox="0 0 750 185" fill="none" xmlns="http://www.w3.org/2000/svg">
<path d="M75.5656 78.4342C82.2814 78.4342 87.7256 83.8784 87.7256 90.5942C87.7256 97.3099 82.2814 102.754 75.5656 102.754C68.8498 102.754 63.4056 97.3099 63.4056 90.5942C63.4056 83.8784 68.8498 78.4342 75.5656 78.4342Z" fill="#358FE9"/>
<path d="M144.183 52.3771C151.858 52.3771 158.08 58.599 158.08 66.2742C158.08 73.9494 151.858 80.1713 144.183 80.1713C136.507 80.1713 130.286 73.9494 130.286 66.2742C130.286 58.599 136.507 52.3771 144.183 52.3771Z" fill="#358FE9"/>
<path fill-rule="evenodd" clip-rule="evenodd" d="M159.6 2C190.32 2 216 27.6802 216 58.1602C216 128.24 108 184.4 108 184.4C107.824 184.309 0.000272112 128.183 0 58.1602C0 27.6802 25.6803 2 56.4002 2C92.5626 2.00015 107.934 36.2562 108 36.3654C108.036 36.3039 123.403 2 159.6 2ZM153.087 134.851C202.076 71.3075 185.126 14.0115 112.901 47.6305C109.855 49.0479 106.14 49.0479 103.095 47.6305C22.7443 10.2293 10.8041 88.6538 81.9611 155.848L78.6098 151.799C74.572 146.92 71.2257 141.508 68.6662 135.715L65.5474 128.654C64.7033 126.744 64.1634 124.713 63.9485 122.635L63.4438 117.75C63.1445 114.856 64.1649 111.982 66.2217 109.926C68.0331 108.115 70.49 107.097 73.0515 107.097H82.5803C84.8438 107.097 87.0992 107.37 89.2973 107.91L106.541 112.145C109.008 112.75 110.742 114.962 110.742 117.502V117.859C110.742 119.539 109.876 121.1 108.452 121.991C107.677 122.475 106.783 122.731 105.87 122.731H97.2061C95.3661 122.731 94.1062 124.587 94.7844 126.297L104.165 149.95C104.446 150.659 105.439 150.688 105.76 149.996L113.53 133.263C116.976 125.84 119.386 117.985 120.697 109.918C120.967 108.26 119.565 106.834 117.895 107.012L110.396 107.813C107.465 108.126 104.91 105.83 104.91 102.882C104.91 100.972 106.006 99.232 107.729 98.4079L121.583 91.7825C123.777 90.7331 126.094 89.9605 128.479 89.483L145.893 85.9968C149.272 85.3206 152.78 85.8828 155.778 87.5813C160.847 90.4536 163.674 96.1079 162.931 101.886L161.167 115.604C160.563 120.306 159.006 124.836 156.595 128.918L153.087 134.851Z" fill="#358FE9"/>
<path d="M279.584 97.632C270.944 97.632 264.416 95.488 260 91.2C255.648 86.912 253.472 80.448 253.472 71.808V29.088H267.2V70.272C267.2 73.536 267.52 76.256 268.16 78.432C268.8 80.608 270.016 82.24 271.808 83.328C273.664 84.416 276.256 84.96 279.584 84.96C282.912 84.96 285.44 84.416 287.168 83.328C288.96 82.24 290.208 80.608 290.912 78.432C291.616 76.256 291.968 73.568 291.968 70.368V29.088H305.696V71.328C305.696 80.16 303.488 86.752 299.072 91.104C294.656 95.456 288.16 97.632 279.584 97.632ZM317.236 96V29.088H331.348L361.492 77.952H357.94V29.088H371.764V96H357.556L327.508 47.04H330.964V96H317.236ZM383.892 96V29.088H397.62V96H383.892ZM424.649 96V41.376H404.489V29.088H458.633V41.376H438.569V96H424.649ZM483.21 96V69.696L459.69 29.088H475.434L489.738 56.064L504.522 29.088H520.17L496.938 69.696V96H483.21ZM566.404 96L546.148 29.088H560.548L573.892 74.88L585.796 33.024H599.332L611.236 74.88L624.58 29.088H638.884L618.628 96H605.38L591.46 49.44H593.667L579.748 96H566.404ZM632.855 96L660.215 29.088H670.391L697.751 96H682.775L665.399 49.44L647.831 96H632.855ZM651.671 83.808L655.991 71.52H674.711L679.127 83.808H651.671ZM712.616 96V69.696L689.096 29.088H704.84L719.144 56.064L733.928 29.088H749.576L726.344 69.696V96H712.616Z" fill="#001429"/>
<path d="M268.832 168.784C265.173 168.784 261.963 167.944 259.2 166.264C256.437 164.584 254.272 162.213 252.704 159.152C251.173 156.091 250.408 152.525 250.408 148.456C250.408 144.387 251.173 140.84 252.704 137.816C254.272 134.755 256.437 132.384 259.2 130.704C261.963 129.024 265.173 128.184 268.832 128.184C272.901 128.184 276.411 129.192 279.36 131.208C282.347 133.224 284.493 136.024 285.8 139.608L279.752 141.792C278.856 139.44 277.475 137.611 275.608 136.304C273.741 134.997 271.483 134.344 268.832 134.344C266.405 134.344 264.296 134.923 262.504 136.08C260.712 137.237 259.312 138.861 258.304 140.952C257.333 143.043 256.848 145.544 256.848 148.456C256.848 151.368 257.333 153.888 258.304 156.016C259.312 158.107 260.712 159.731 262.504 160.888C264.296 162.045 266.405 162.624 268.832 162.624C271.483 162.624 273.741 161.971 275.608 160.664C277.475 159.32 278.856 157.491 279.752 155.176L285.8 157.36C284.493 160.869 282.347 163.651 279.36 165.704C276.411 167.757 272.901 168.784 268.832 168.784ZM287.663 168L303.119 128.968H308.047L323.447 168H316.391L305.583 138.432L294.775 168H287.663ZM297.295 159.824L299.311 154.056H311.799L313.927 159.824H297.295ZM328.046 168V128.968H340.534C343.633 128.968 346.153 129.435 348.094 130.368C350.036 131.264 351.454 132.552 352.35 134.232C353.284 135.912 353.75 137.891 353.75 140.168C353.75 143.64 352.742 146.347 350.726 148.288C348.748 150.192 345.91 151.293 342.214 151.592C341.468 151.592 340.665 151.592 339.806 151.592C338.948 151.592 338.182 151.592 337.51 151.592H334.542V168H328.046ZM349.438 168L339.526 150.864L346.19 150.08L356.942 168H349.438ZM334.542 145.88H339.862C341.281 145.88 342.532 145.712 343.614 145.376C344.734 145.04 345.612 144.461 346.246 143.64C346.918 142.819 347.254 141.68 347.254 140.224C347.254 138.768 346.918 137.648 346.246 136.864C345.612 136.08 344.734 135.539 343.614 135.24C342.494 134.904 341.244 134.736 339.862 134.736H334.542V145.88ZM361.843 168V128.968H387.771V134.736H368.339V145.096H386.259V150.92H368.339V162.232H387.771V168H361.843ZM421.474 168.728C417.368 168.728 414.008 167.664 411.394 165.536C408.818 163.408 407.232 160.571 406.634 157.024L412.962 155.456C413.373 157.92 414.344 159.787 415.874 161.056C417.442 162.325 419.365 162.96 421.642 162.96C422.912 162.96 424.05 162.736 425.058 162.288C426.066 161.803 426.85 161.131 427.41 160.272C428.008 159.413 428.306 158.443 428.306 157.36C428.306 156.203 427.989 155.251 427.354 154.504C426.72 153.72 425.805 153.029 424.61 152.432C423.416 151.797 421.96 151.144 420.242 150.472C417.89 149.576 415.893 148.605 414.25 147.56C412.608 146.515 411.357 145.283 410.498 143.864C409.64 142.408 409.21 140.691 409.21 138.712C409.21 136.659 409.714 134.848 410.722 133.28C411.73 131.675 413.149 130.424 414.978 129.528C416.808 128.632 418.917 128.184 421.306 128.184C423.882 128.184 426.16 128.763 428.138 129.92C430.117 131.077 431.704 132.832 432.898 135.184L427.746 138.32C426.962 136.901 426.01 135.819 424.89 135.072C423.77 134.288 422.501 133.896 421.082 133.896C420.074 133.896 419.16 134.101 418.338 134.512C417.517 134.885 416.864 135.427 416.378 136.136C415.93 136.845 415.706 137.667 415.706 138.6C415.706 139.571 415.986 140.429 416.546 141.176C417.106 141.885 417.965 142.539 419.122 143.136C420.317 143.733 421.829 144.387 423.658 145.096C426.01 145.992 428.008 146.963 429.65 148.008C431.293 149.053 432.544 150.304 433.402 151.76C434.298 153.179 434.746 154.915 434.746 156.968C434.746 159.245 434.186 161.261 433.066 163.016C431.946 164.771 430.378 166.171 428.362 167.216C426.384 168.224 424.088 168.728 421.474 168.728ZM440.921 168V128.968H466.849V134.736H447.417V145.096H465.337V150.92H447.417V162.232H466.849V168H440.921ZM473.406 168V128.968H485.894C488.992 128.968 491.512 129.435 493.454 130.368C495.395 131.264 496.814 132.552 497.71 134.232C498.643 135.912 499.11 137.891 499.11 140.168C499.11 143.64 498.102 146.347 496.086 148.288C494.107 150.192 491.27 151.293 487.574 151.592C486.827 151.592 486.024 151.592 485.166 151.592C484.307 151.592 483.542 151.592 482.87 151.592H479.902V168H473.406ZM494.798 168L484.886 150.864L491.55 150.08L502.302 168H494.798ZM479.902 145.88H485.222C486.64 145.88 487.891 145.712 488.974 145.376C490.094 145.04 490.971 144.461 491.606 143.64C492.278 142.819 492.614 141.68 492.614 140.224C492.614 138.768 492.278 137.648 491.606 136.864C490.971 136.08 490.094 135.539 488.974 135.24C487.854 134.904 486.603 134.736 485.222 134.736H479.902V145.88ZM517.882 168L502.202 128.968H509.37L521.298 160.104H519.338L531.098 128.968H538.266L522.698 168H517.882ZM542.859 168V128.968H549.355V168H542.859ZM574.152 168.784C570.494 168.784 567.283 167.944 564.52 166.264C561.758 164.584 559.592 162.213 558.024 159.152C556.494 156.091 555.728 152.525 555.728 148.456C555.728 144.387 556.494 140.84 558.024 137.816C559.592 134.755 561.758 132.384 564.52 130.704C567.283 129.024 570.494 128.184 574.152 128.184C578.222 128.184 581.731 129.192 584.68 131.208C587.667 133.224 589.814 136.024 591.12 139.608L585.072 141.792C584.176 139.44 582.795 137.611 580.928 136.304C579.062 134.997 576.803 134.344 574.152 134.344C571.726 134.344 569.616 134.923 567.824 136.08C566.032 137.237 564.632 138.861 563.624 140.952C562.654 143.043 562.168 145.544 562.168 148.456C562.168 151.368 562.654 153.888 563.624 156.016C564.632 158.107 566.032 159.731 567.824 160.888C569.616 162.045 571.726 162.624 574.152 162.624C576.803 162.624 579.062 161.971 580.928 160.664C582.795 159.32 584.176 157.491 585.072 155.176L591.12 157.36C589.814 160.869 587.667 163.651 584.68 165.704C581.731 167.757 578.222 168.784 574.152 168.784ZM596.945 168V128.968H622.873V134.736H603.441V145.096H621.361V150.92H603.441V162.232H622.873V168H596.945ZM641.701 168.728C637.594 168.728 634.234 167.664 631.621 165.536C629.045 163.408 627.458 160.571 626.861 157.024L633.189 155.456C633.6 157.92 634.57 159.787 636.101 161.056C637.669 162.325 639.592 162.96 641.869 162.96C643.138 162.96 644.277 162.736 645.285 162.288C646.293 161.803 647.077 161.131 647.637 160.272C648.234 159.413 648.533 158.443 648.533 157.36C648.533 156.203 648.216 155.251 647.581 154.504C646.946 153.72 646.032 153.029 644.837 152.432C643.642 151.797 642.186 151.144 640.469 150.472C638.117 149.576 636.12 148.605 634.477 147.56C632.834 146.515 631.584 145.283 630.725 143.864C629.866 142.408 629.437 140.691 629.437 138.712C629.437 136.659 629.941 134.848 630.949 133.28C631.957 131.675 633.376 130.424 635.205 129.528C637.034 128.632 639.144 128.184 641.533 128.184C644.109 128.184 646.386 128.763 648.365 129.92C650.344 131.077 651.93 132.832 653.125 135.184L647.973 138.32C647.189 136.901 646.237 135.819 645.117 135.072C643.997 134.288 642.728 133.896 641.309 133.896C640.301 133.896 639.386 134.101 638.565 134.512C637.744 134.885 637.09 135.427 636.605 136.136C636.157 136.845 635.933 137.667 635.933 138.6C635.933 139.571 636.213 140.429 636.773 141.176C637.333 141.885 638.192 142.539 639.349 143.136C640.544 143.733 642.056 144.387 643.885 145.096C646.237 145.992 648.234 146.963 649.877 148.008C651.52 149.053 652.77 150.304 653.629 151.76C654.525 153.179 654.973 154.915 654.973 156.968C654.973 159.245 654.413 161.261 653.293 163.016C652.173 164.771 650.605 166.171 648.589 167.216C646.61 168.224 644.314 168.728 641.701 168.728Z" fill="#001429"/>
</svg>
